<svg fill="none" height="67" viewBox="0 0 242 67" width="242" xmlns="http://www.w3.org/2000/svg">
  <path
    d="M51.6277 35.3022V45.6277C51.6277 54.3347 43.5068 61.3951 33.4883 61.3951C23.4697 61.3951 15.3488 54.3347 15.3488 45.6277V35.3022C15.3488 44.0091 23.4697 50.2324 33.4883 50.2324C43.5068 50.2324 51.6277 44.0091 51.6277 35.3022Z"
    fill="#CD9A15"/>
  <path
    d="M51.6277 21.3488V35.3022C51.6277 44.0091 43.5068 50.2324 33.4883 50.2324C23.4697 50.2324 15.3488 44.0091 15.3488 35.3022V21.3488C15.3488 23.8883 16.0465 26.2325 17.2744 28.2418C20.2604 33.1534 26.3999 36.2789 33.4883 36.2789C40.5766 36.2789 46.7161 33.1534 49.7021 28.2418C50.93 26.2325 51.6277 23.8883 51.6277 21.3488Z"
    fill="#ECB937"/>
  <path
    d="M51.6277 21.3488C51.6277 23.8883 50.93 26.2325 49.7021 28.2418C46.7161 33.1534 40.5766 36.2789 33.4883 36.2789C26.3999 36.2789 20.2604 33.1534 17.2744 28.2418C16.0465 26.2325 15.3488 23.8883 15.3488 21.3488C15.3488 12.6418 23.4697 5.58138 33.4883 5.58138C38.5115 5.58138 43.0324 7.33951 46.3254 10.186C49.5905 13.0604 51.6277 16.9953 51.6277 21.3488Z"
    fill="#FFCF54"/>
  <path
    d="M63.2644 13.2343V34.7963H59.1919V13.2343H63.2644ZM84.9893 13.2343V34.7963H80.902L71.7352 19.8392V34.7963H67.6627V13.2343H71.7352L80.9316 28.2063V13.2343H84.9893ZM97.9472 13.2343V34.7963H93.8895V13.2343H97.9472ZM104.641 13.2343V16.4479H87.2699V13.2343H104.641ZM121.642 31.5976V34.7963H110.18V31.5976H121.642ZM111.423 13.2343V34.7963H107.351V13.2343H111.423ZM120.146 22.1346V25.2593H110.18V22.1346H120.146ZM121.597 13.2343V16.4479H110.18V13.2343H121.597ZM138.154 31.5976V34.7963H127.314V31.5976H138.154ZM128.543 13.2343V34.7963H124.47V13.2343H128.543ZM154.562 31.5976V34.7963H143.722V31.5976H154.562ZM144.951 13.2343V34.7963H140.879V13.2343H144.951ZM161.626 13.2343V34.7963H157.554V13.2343H161.626ZM182.848 23.6451V32.0419C182.532 32.4466 182.033 32.886 181.352 33.3599C180.681 33.8338 179.802 34.2435 178.716 34.589C177.63 34.9247 176.297 35.0925 174.717 35.0925C173.345 35.0925 172.091 34.8654 170.956 34.4113C169.821 33.9473 168.843 33.271 168.024 32.3825C167.204 31.4939 166.572 30.4079 166.128 29.1245C165.684 27.841 165.462 26.3749 165.462 24.7262V23.3045C165.462 21.6558 165.669 20.1897 166.084 18.9062C166.508 17.6228 167.111 16.5368 167.89 15.6482C168.68 14.7597 169.623 14.0834 170.719 13.6194C171.825 13.1553 173.059 12.9233 174.421 12.9233C176.248 12.9233 177.748 13.2245 178.923 13.8267C180.108 14.4289 181.016 15.2582 181.648 16.3146C182.28 17.3611 182.675 18.5656 182.833 19.928H178.864C178.755 19.1777 178.538 18.5212 178.212 17.9584C177.887 17.3858 177.423 16.9415 176.82 16.6256C176.228 16.2998 175.458 16.1369 174.51 16.1369C173.71 16.1369 173.005 16.2949 172.392 16.6108C171.78 16.9267 171.267 17.3858 170.852 17.988C170.438 18.5903 170.122 19.3357 169.905 20.2242C169.697 21.1128 169.594 22.1296 169.594 23.2749V24.7262C169.594 25.8813 169.712 26.908 169.949 27.8065C170.186 28.695 170.526 29.4453 170.971 30.0574C171.425 30.6597 171.983 31.1188 172.644 31.4347C173.316 31.7407 174.076 31.8938 174.925 31.8938C175.695 31.8938 176.332 31.8296 176.835 31.7012C177.349 31.563 177.758 31.4001 178.064 31.2125C178.37 31.025 178.607 30.8423 178.775 30.6646V26.6217H174.495V23.6451H182.848ZM200.989 31.5976V34.7963H189.527V31.5976H200.989ZM190.77 13.2343V34.7963H186.698V13.2343H190.77ZM199.493 22.1346V25.2593H189.527V22.1346H199.493ZM200.944 13.2343V16.4479H189.527V13.2343H200.944ZM221.144 13.2343V34.7963H217.057L207.89 19.8392V34.7963H203.817V13.2343H207.89L217.086 28.2063V13.2343H221.144ZM234.102 13.2343V34.7963H230.044V13.2343H234.102ZM240.796 13.2343V16.4479H223.425V13.2343H240.796Z"
    fill="#292D32"/>
  <path
    d="M60.1572 43.6456V55.4883H59.0466V40.4663H60.1295L60.1572 43.6456ZM59.9768 46.8249L59.4214 46.1863C59.4955 45.3903 59.6806 44.6313 59.9768 43.9094C60.2822 43.1875 60.6848 42.5488 61.1846 41.9935C61.6937 41.4381 62.2907 40.9985 62.9756 40.6745C63.6698 40.3506 64.4426 40.1886 65.2941 40.1886C66.0438 40.1886 66.7149 40.2904 67.3072 40.4941C67.9089 40.6884 68.4179 40.9985 68.8344 41.4243C69.2509 41.8408 69.5703 42.3868 69.7924 43.0625C70.0145 43.7382 70.1256 44.548 70.1256 45.4921V55.4883H69.0149V45.5199C69.0149 44.3907 68.8483 43.516 68.5151 42.8959C68.1819 42.2758 67.7191 41.8408 67.1268 41.5909C66.5344 41.3317 65.8541 41.2021 65.0859 41.2021C64.1788 41.2021 63.406 41.4011 62.7673 41.7991C62.1287 42.1879 61.6058 42.683 61.1985 43.2846C60.8005 43.877 60.5043 44.4925 60.31 45.1312C60.1156 45.7698 60.0045 46.3344 59.9768 46.8249ZM70.1117 45.5893L69.362 45.3255C69.4361 44.6499 69.6258 44.0066 69.9312 43.3957C70.2459 42.7756 70.6578 42.2295 71.1669 41.7575C71.6759 41.2762 72.2729 40.8967 72.9578 40.619C73.652 40.3321 74.4202 40.1886 75.2625 40.1886C76.0307 40.1886 76.7156 40.2951 77.3173 40.5079C77.9281 40.7116 78.4372 41.0401 78.8444 41.4937C79.2609 41.9379 79.5803 42.5118 79.8024 43.2152C80.0245 43.9094 80.1356 44.7517 80.1356 45.742V55.4883H79.0249V45.7281C79.0249 44.5434 78.8583 43.6225 78.5251 42.9653C78.1919 42.3082 77.7291 41.85 77.1368 41.5909C76.5444 41.3224 75.8595 41.1929 75.082 41.2021C74.2583 41.2114 73.5409 41.3641 72.9301 41.6603C72.3192 41.9565 71.8101 42.3313 71.4029 42.7848C70.9956 43.2384 70.6856 43.715 70.4727 44.2148C70.2598 44.7054 70.1395 45.1635 70.1117 45.5893ZM83.9219 48.2411V47.7135C83.9219 46.6121 84.0793 45.6032 84.394 44.6869C84.7179 43.7706 85.1714 42.9792 85.7545 42.3128C86.3377 41.6371 87.0318 41.1142 87.8371 40.744C88.6516 40.3737 89.554 40.1886 90.5444 40.1886C91.5347 40.1886 92.4371 40.3737 93.2516 40.744C94.0661 41.1142 94.7649 41.6371 95.348 42.3128C95.9404 42.9792 96.3939 43.7706 96.7086 44.6869C97.0233 45.6032 97.1807 46.6121 97.1807 47.7135V48.2411C97.1807 49.3425 97.0233 50.3514 96.7086 51.2677C96.3939 52.184 95.945 52.98 95.3619 53.6556C94.7788 54.322 94.08 54.8404 93.2655 55.2106C92.4603 55.5808 91.5625 55.7659 90.5721 55.7659C89.5725 55.7659 88.6655 55.5808 87.851 55.2106C87.0457 54.8404 86.3469 54.322 85.7545 53.6556C85.1714 52.98 84.7179 52.184 84.394 51.2677C84.0793 50.3514 83.9219 49.3425 83.9219 48.2411ZM85.0326 47.7135V48.2411C85.0326 49.1111 85.1529 49.9395 85.3936 50.7262C85.6435 51.5037 86.0044 52.1979 86.4765 52.8087C86.9485 53.4104 87.527 53.887 88.2119 54.2387C88.8968 54.5812 89.6836 54.7524 90.5721 54.7524C91.4422 54.7524 92.2196 54.5812 92.9045 54.2387C93.5895 53.887 94.1633 53.4104 94.6261 52.8087C95.0981 52.1979 95.4545 51.5037 95.6951 50.7262C95.945 49.9395 96.07 49.1111 96.07 48.2411V47.7135C96.07 46.862 95.945 46.0475 95.6951 45.27C95.4545 44.4925 95.0981 43.7983 94.6261 43.1875C94.1541 42.5766 93.5756 42.0953 92.8907 41.7436C92.2057 41.3826 91.4236 41.2021 90.5444 41.2021C89.6651 41.2021 88.883 41.3826 88.198 41.7436C87.5224 42.0953 86.9439 42.5766 86.4626 43.1875C85.9906 43.7983 85.6342 44.4925 85.3936 45.27C85.1529 46.0475 85.0326 46.862 85.0326 47.7135ZM102.272 43.6734V55.4883H101.175V40.4663H102.258L102.272 43.6734ZM102.064 46.8249L101.522 46.1863C101.606 45.3903 101.8 44.6313 102.105 43.9094C102.42 43.1875 102.832 42.5488 103.341 41.9935C103.859 41.4381 104.461 40.9985 105.146 40.6745C105.84 40.3506 106.604 40.1886 107.437 40.1886C108.186 40.1886 108.857 40.2951 109.45 40.5079C110.042 40.7116 110.542 41.0355 110.949 41.4798C111.366 41.9241 111.68 42.4979 111.893 43.2013C112.106 43.8955 112.213 44.7424 112.213 45.742V55.4883H111.116V45.742C111.116 44.5573 110.954 43.641 110.63 42.9931C110.306 42.3359 109.852 41.8732 109.269 41.6047C108.695 41.3363 108.024 41.2021 107.256 41.2021C106.368 41.2021 105.599 41.4011 104.952 41.7991C104.313 42.1879 103.785 42.683 103.369 43.2846C102.952 43.877 102.633 44.4925 102.411 45.1312C102.198 45.7698 102.082 46.3344 102.064 46.8249ZM122.774 55.7659C121.83 55.7659 120.955 55.5854 120.15 55.2245C119.345 54.8542 118.641 54.3405 118.04 53.6834C117.438 53.017 116.966 52.2303 116.624 51.3232C116.29 50.4161 116.124 49.4212 116.124 48.3382V47.7274C116.124 46.6074 116.29 45.5893 116.624 44.673C116.966 43.7474 117.429 42.9514 118.012 42.285C118.595 41.6094 119.266 41.0911 120.025 40.7301C120.793 40.3691 121.612 40.1886 122.483 40.1886C123.362 40.1886 124.158 40.3506 124.87 40.6745C125.583 40.9985 126.194 41.452 126.703 42.0351C127.212 42.6182 127.601 43.3124 127.869 44.1177C128.138 44.9229 128.272 45.8114 128.272 46.7833V47.7135H116.818V46.7H127.175V46.5195C127.166 45.5754 126.972 44.7008 126.592 43.8955C126.222 43.0903 125.69 42.4424 124.995 41.9518C124.301 41.452 123.464 41.2021 122.483 41.2021C121.696 41.2021 120.978 41.3687 120.331 41.7019C119.692 42.0351 119.141 42.4979 118.678 43.0903C118.216 43.6734 117.859 44.3629 117.609 45.1589C117.36 45.9457 117.235 46.8018 117.235 47.7274V48.3382C117.235 49.2268 117.373 50.0598 117.651 50.8373C117.929 51.6148 118.317 52.2997 118.817 52.892C119.317 53.4751 119.905 53.9333 120.58 54.2665C121.256 54.5997 121.997 54.7663 122.802 54.7663C123.672 54.7663 124.468 54.6136 125.19 54.3082C125.912 54.0027 126.569 53.4659 127.161 52.6977L127.883 53.2391C127.55 53.7204 127.147 54.1508 126.675 54.5303C126.203 54.9098 125.643 55.2106 124.995 55.4327C124.357 55.6549 123.616 55.7659 122.774 55.7659ZM136.529 54.0166L141.527 40.4663H142.735L136.182 57.9456C136.061 58.2788 135.909 58.6491 135.724 59.0563C135.538 59.4728 135.298 59.8708 135.002 60.2503C134.705 60.6298 134.321 60.9398 133.849 61.1805C133.386 61.4304 132.813 61.5553 132.128 61.5553C131.97 61.5553 131.762 61.5368 131.503 61.4998C131.253 61.472 131.068 61.435 130.948 61.3887L130.934 60.4169C131.063 60.4447 131.235 60.4678 131.447 60.4863C131.66 60.5141 131.808 60.528 131.892 60.528C132.503 60.528 133.012 60.4076 133.419 60.167C133.835 59.9356 134.182 59.6024 134.46 59.1674C134.738 58.7416 134.983 58.2372 135.196 57.6541L136.529 54.0166ZM131.378 40.4663L136.709 54.1138L137.029 55.2522L136.182 55.7798L130.17 40.4663H131.378ZM158.526 40.4663V41.4659H151.335V40.4663H158.526ZM154.111 36.4956H155.222V51.8647C155.222 52.6699 155.319 53.2808 155.514 53.6973C155.717 54.1045 155.981 54.3822 156.305 54.5303C156.638 54.6691 156.995 54.7385 157.374 54.7385C157.642 54.7385 157.888 54.7247 158.11 54.6969C158.341 54.6691 158.573 54.6367 158.804 54.5997L158.901 55.5716C158.698 55.6363 158.434 55.6826 158.11 55.7104C157.786 55.7474 157.499 55.7659 157.249 55.7659C156.62 55.7659 156.069 55.6502 155.597 55.4188C155.125 55.1874 154.759 54.7894 154.5 54.2249C154.241 53.651 154.111 52.8643 154.111 51.8647V36.4956ZM163.77 43.0209V55.4883H162.674V40.4663H163.757L163.77 43.0209ZM169.49 40.3552L169.421 41.3548C169.254 41.3271 169.088 41.3039 168.921 41.2854C168.755 41.2669 168.579 41.2577 168.394 41.2577C167.598 41.2577 166.899 41.415 166.297 41.7297C165.705 42.0444 165.205 42.4748 164.798 43.0209C164.4 43.5669 164.099 44.201 163.895 44.9229C163.692 45.6448 163.585 46.4177 163.576 47.2414L163.035 47.3525C163.035 46.3251 163.141 45.3764 163.354 44.5064C163.576 43.6364 163.909 42.8774 164.354 42.2295C164.798 41.5816 165.358 41.0818 166.033 40.7301C166.709 40.3691 167.505 40.1886 168.421 40.1886C168.644 40.1886 168.847 40.2071 169.032 40.2442C169.217 40.2719 169.37 40.3089 169.49 40.3552ZM181.412 52.7254V44.9646C181.412 44.1778 181.246 43.5022 180.913 42.9376C180.579 42.373 180.094 41.9426 179.455 41.6464C178.816 41.341 178.034 41.1882 177.109 41.1882C176.248 41.1882 175.475 41.341 174.79 41.6464C174.114 41.9426 173.582 42.3498 173.193 42.8681C172.805 43.3865 172.61 43.9649 172.61 44.6036L171.5 44.5897C171.5 44.0158 171.634 43.4651 171.902 42.9376C172.18 42.41 172.569 41.9426 173.068 41.5353C173.578 41.1188 174.175 40.7902 174.859 40.5496C175.554 40.3089 176.313 40.1886 177.136 40.1886C178.191 40.1886 179.122 40.3691 179.927 40.7301C180.741 41.0818 181.375 41.614 181.829 42.3267C182.282 43.0394 182.509 43.9279 182.509 44.9923V52.4061C182.509 52.9429 182.546 53.4844 182.62 54.0305C182.694 54.5766 182.796 55.0162 182.926 55.3494V55.4883H181.718C181.616 55.1365 181.537 54.7061 181.482 54.1971C181.436 53.688 181.412 53.1975 181.412 52.7254ZM181.773 46.9638L181.801 47.9217H178.136C177.21 47.9217 176.382 48.0097 175.651 48.1855C174.92 48.3614 174.299 48.6113 173.79 48.9352C173.281 49.2592 172.893 49.6433 172.624 50.0876C172.356 50.5318 172.222 51.0316 172.222 51.587C172.222 52.1608 172.374 52.6884 172.68 53.1697C172.985 53.651 173.416 54.0351 173.971 54.322C174.526 54.5997 175.17 54.7385 175.901 54.7385C176.9 54.7385 177.784 54.5673 178.552 54.2249C179.33 53.8731 179.982 53.4011 180.51 52.8087C181.038 52.2071 181.422 51.5129 181.662 50.7262L182.148 51.5315C181.991 52.022 181.746 52.5172 181.412 53.017C181.079 53.5168 180.649 53.9749 180.121 54.3915C179.594 54.7987 178.974 55.1319 178.261 55.3911C177.548 55.641 176.738 55.7659 175.831 55.7659C174.878 55.7659 174.045 55.5901 173.332 55.2383C172.629 54.8774 172.083 54.3868 171.694 53.7667C171.305 53.1373 171.111 52.42 171.111 51.6148C171.111 50.9206 171.268 50.2866 171.583 49.7127C171.898 49.1389 172.351 48.6483 172.944 48.2411C173.545 47.8246 174.272 47.5099 175.123 47.297C175.984 47.0748 176.951 46.9638 178.025 46.9638H181.773ZM192.904 54.7524C193.654 54.7524 194.362 54.6136 195.028 54.3359C195.704 54.0582 196.264 53.6371 196.708 53.0725C197.162 52.4987 197.416 51.7721 197.472 50.8928H198.555C198.508 51.8924 198.221 52.7578 197.694 53.489C197.166 54.211 196.486 54.7709 195.653 55.1689C194.82 55.5669 193.904 55.7659 192.904 55.7659C191.904 55.7659 191.011 55.5808 190.225 55.2106C189.447 54.8404 188.795 54.3174 188.267 53.6417C187.739 52.9661 187.337 52.1747 187.059 51.2677C186.791 50.3514 186.657 49.3517 186.657 48.2688V47.6857C186.657 46.6028 186.791 45.6078 187.059 44.7008C187.337 43.7845 187.739 42.9885 188.267 42.3128C188.795 41.6371 189.442 41.1142 190.211 40.744C190.988 40.3737 191.877 40.1886 192.876 40.1886C193.885 40.1886 194.811 40.3969 195.653 40.8134C196.495 41.2206 197.176 41.8176 197.694 42.6044C198.221 43.3818 198.508 44.3352 198.555 45.4644H197.472C197.426 44.5388 197.189 43.7613 196.764 43.1319C196.338 42.5025 195.783 42.0259 195.098 41.7019C194.413 41.3687 193.672 41.2021 192.876 41.2021C191.988 41.2021 191.22 41.3734 190.572 41.7158C189.924 42.0583 189.392 42.5303 188.975 43.1319C188.559 43.7243 188.253 44.4138 188.059 45.2006C187.864 45.978 187.767 46.8064 187.767 47.6857V48.2688C187.767 49.1574 187.864 49.995 188.059 50.7817C188.253 51.5592 188.559 52.2441 188.975 52.8365C189.392 53.4289 189.924 53.8963 190.572 54.2387C191.229 54.5812 192.006 54.7524 192.904 54.7524ZM203.688 34.1632V55.4883H202.577V34.1632H203.688ZM213.253 40.4663L205.951 47.408L203.368 49.7544L203.105 48.7825L205.368 46.5195L211.782 40.4663H213.253ZM212.365 55.4883L205.534 47.297L206.187 46.3807L213.725 55.4883H212.365ZM221.927 55.7659C220.983 55.7659 220.108 55.5854 219.303 55.2245C218.498 54.8542 217.794 54.3405 217.192 53.6834C216.591 53.017 216.119 52.2303 215.776 51.3232C215.443 50.4161 215.277 49.4212 215.277 48.3382V47.7274C215.277 46.6074 215.443 45.5893 215.776 44.673C216.119 43.7474 216.582 42.9514 217.165 42.285C217.748 41.6094 218.419 41.0911 219.178 40.7301C219.946 40.3691 220.765 40.1886 221.635 40.1886C222.514 40.1886 223.31 40.3506 224.023 40.6745C224.736 40.9985 225.347 41.452 225.856 42.0351C226.365 42.6182 226.754 43.3124 227.022 44.1177C227.29 44.9229 227.425 45.8114 227.425 46.7833V47.7135H215.971V46.7H226.328V46.5195C226.319 45.5754 226.124 44.7008 225.745 43.8955C225.374 43.0903 224.842 42.4424 224.148 41.9518C223.454 41.452 222.616 41.2021 221.635 41.2021C220.848 41.2021 220.131 41.3687 219.483 41.7019C218.845 42.0351 218.294 42.4979 217.831 43.0903C217.368 43.6734 217.012 44.3629 216.762 45.1589C216.512 45.9457 216.387 46.8018 216.387 47.7274V48.3382C216.387 49.2268 216.526 50.0598 216.804 50.8373C217.081 51.6148 217.47 52.2997 217.97 52.892C218.47 53.4751 219.057 53.9333 219.733 54.2665C220.409 54.5997 221.149 54.7663 221.955 54.7663C222.825 54.7663 223.621 54.6136 224.342 54.3082C225.064 54.0027 225.722 53.4659 226.314 52.6977L227.036 53.2391C226.703 53.7204 226.3 54.1508 225.828 54.5303C225.356 54.9098 224.796 55.2106 224.148 55.4327C223.509 55.6549 222.769 55.7659 221.927 55.7659ZM232.377 43.0209V55.4883H231.28V40.4663H232.363L232.377 43.0209ZM238.097 40.3552L238.028 41.3548C237.861 41.3271 237.695 41.3039 237.528 41.2854C237.361 41.2669 237.185 41.2577 237 41.2577C236.204 41.2577 235.506 41.415 234.904 41.7297C234.312 42.0444 233.812 42.4748 233.405 43.0209C233.007 43.5669 232.706 44.201 232.502 44.9229C232.298 45.6448 232.192 46.4177 232.183 47.2414L231.641 47.3525C231.641 46.3251 231.748 45.3764 231.961 44.5064C232.183 43.6364 232.516 42.8774 232.96 42.2295C233.405 41.5816 233.964 41.0818 234.64 40.7301C235.316 40.3691 236.112 40.1886 237.028 40.1886C237.25 40.1886 237.454 40.2071 237.639 40.2442C237.824 40.2719 237.977 40.3089 238.097 40.3552Z"
    fill="#292D32"/>
</svg>
